{
  "accessors": [
    {
      "bufferView": 2,
      "componentType": 5126,
      "count": 124,
      "max": [
        13.218769073486328,
        10.823561668395996,
        4.4219865798950195
      ],
      "min": [
        -13.216508865356445,
        -12.897936820983887,
        4.353585243225098
      ],
      "type": "VEC3"
    },
    {
      "bufferView": 2,
      "byteOffset": 1488,
      "componentType": 5126,
      "count": 124,
      "max": [
        -0.0017453257460147142,
        -0.0017483718693256378,
        0.9999969601631165
      ],
      "min": [
        -0.0017453257460147142,
        -0.0017483718693256378,
        0.9999969601631165
      ],
      "type": "VEC3"
    },
    {
      "bufferView": 1,
      "componentType": 5126,
      "count": 124,
      "max": [
        0.7890625,
        0.9962499737739563
      ],
      "min": [
        0.0037499999161809683,
        0.09375
      ],
      "type": "VEC2"
    },
    {
      "bufferView": 0,
      "componentType": 5125,
      "count": 186,
      "type": "SCALAR"
    },
    {
      "bufferView": 2,
      "byteOffset": 2976,
      "componentType": 5126,
      "count": 172,
      "max": [
        15.658794403076172,
        13.370060920715332,
        15.769927978515625
      ],
      "min": [
        -15.640890121459961,
        -11.752264022827148,
        3.803518772125244
      ],
      "type": "VEC3"
    },
    {
      "bufferView": 2,
      "byteOffset": 5040,
      "componentType": 5126,
      "count": 172,
      "max": [
        0.9999969601631165,
        0.9999969601631165,
        0.9999969601631165
      ],
      "min": [
        -0.9999969601631165,
        -0.924543559551239,
        -0.9999969601631165
      ],
      "type": "VEC3"
    },
    {
      "bufferView": 1,
      "byteOffset": 992,
      "componentType": 5126,
      "count": 172,
      "max": [
        0.9962499737739563,
        1.0
      ],
      "min": [
        0.0037499999161809683,
        0.2214374989271164
      ],
      "type": "VEC2"
    },
    {
      "bufferView": 0,
      "byteOffset": 744,
      "componentType": 5125,
      "count": 258,
      "type": "SCALAR"
    },
    {
      "bufferView": 2,
      "byteOffset": 7104,
      "componentType": 5126,
      "count": 72,
      "max": [
        9.914628982543945,
        8.026009559631348,
        4.379466533660889
      ],
      "min": [
        -9.935126304626465,
        -13.085217475891113,
        3.8207499980926514
      ],
      "type": "VEC3"
    },
    {
      "bufferView": 2,
      "byteOffset": 7968,
      "componentType": 5126,
      "count": 72,
      "max": [
        0.924544632434845,
        0.0017483718693256378,
        0.9999969601631165
      ],
      "min": [
        -0.9232088327407837,
        -0.9999969601631165,
        -0.9999969601631165
      ],
      "type": "VEC3"
    },
    {
      "bufferView": 1,
      "byteOffset": 2368,
      "componentType": 5126,
      "count": 72,
      "max": [
        0.796875,
        0.9962499737739563
      ],
      "min": [
        0.0037499999161809683,
        0.109375
      ],
      "type": "VEC2"
    },
    {
      "bufferView": 0,
      "byteOffset": 1776,
      "componentType": 5125,
      "count": 108,
      "type": "SCALAR"
    },
    {
      "bufferView": 2,
      "byteOffset": 8832,
      "componentType": 5126,
      "count": 32,
      "max": [
        6.162201404571533,
        -6.680936813354492,
        4.3524370193481445
      ],
      "min": [
        -6.152720928192139,
        -13.085217475891113,
        3.814711332321167
      ],
      "type": "VEC3"
    },
    {
      "bufferView": 2,
      "byteOffset": 9216,
      "componentType": 5126,
      "count": 32,
      "max": [
        0.0017453257460147142,
        0.0017483718693256378,
        0.9999969601631165
      ],
      "min": [
        -0.0017453257460147142,
        -0.0017483718693256378,
        -0.9999969601631165
      ],
      "type": "VEC3"
    },
    {
      "bufferView": 1,
      "byteOffset": 2944,
      "componentType": 5126,
      "count": 32,
      "max": [
        0.796875,
        0.609375
      ],
      "min": [
        0.0037499999161809683,
        0.109375
      ],
      "type": "VEC2"
    },
    {
      "bufferView": 0,
      "byteOffset": 2208,
      "componentType": 5125,
      "count": 48,
      "type": "SCALAR"
    },
    {
      "bufferView": 2,
      "byteOffset": 9600,
      "componentType": 5126,
      "count": 4,
      "max": [
        5.007402420043945,
        8.005627632141113,
        1.7726991176605225
      ],
      "min": [
        -5.017001628875732,
        -6.011752605438232,
        1.730780839920044
      ],
      "type": "VEC3"
    },
    {
      "bufferView": 2,
      "byteOffset": 9648,
      "componentType": 5126,
      "count": 4,
      "max": [
        0.0017453257460147142,
        0.0017483718693256378,
        -0.9999969601631165
      ],
      "min": [
        0.0017453257460147142,
        0.0017483718693256378,
        -0.9999969601631165
      ],
      "type": "VEC3"
    },
    {
      "bufferView": 1,
      "byteOffset": 3200,
      "componentType": 5126,
      "count": 4,
      "max": [
        0.796875,
        0.890625
      ],
      "min": [
        0.171875,
        0.015625
      ],
      "type": "VEC2"
    },
    {
      "bufferView": 0,
      "byteOffset": 2400,
      "componentType": 5125,
      "count": 6,
      "type": "SCALAR"
    },
    {
      "bufferView": 2,
      "byteOffset": 9696,
      "componentType": 5126,
      "count": 64,
      "max": [
        4.009340763092041,
        7.385945796966553,
        15.769927978515625
      ],
      "min": [
        -5.761370658874512,
        -4.7771759033203125,
        6.731634140014648
      ],
      "type": "VEC3"
    },
    {
      "bufferView": 2,
      "byteOffset": 10464,
      "componentType": 5126,
      "count": 64,
      "max": [
        0.9999969601631165,
        0.9999969601631165,
        0.9999969601631165
      ],
      "min": [
        -0.9999969601631165,
        -0.9999969601631165,
        -0.9999969601631165
      ],
      "type": "VEC3"
    },
    {
      "bufferView": 1,
      "byteOffset": 3232,
      "componentType": 5126,
      "count": 64,
      "max": [
        0.13437500596046448,
        1.253749966621399
      ],
      "min": [
        -0.2537499964237213,
        0.765625
      ],
      "type": "VEC2"
    },
    {
      "bufferView": 0,
      "byteOffset": 2424,
      "componentType": 5125,
      "count": 96,
      "type": "SCALAR"
    },
    {
      "bufferView": 2,
      "byteOffset": 11232,
      "componentType": 5126,
      "count": 9399,
      "max": [
        15.658794403076172,
        23.12982940673828,
        17.080949783325195
      ],
      "min": [
        -15.640890121459961,
        -13.085217475891113,
        -8.858994483947754
      ],
      "type": "VEC3"
    },
    {
      "bufferView": 2,
      "byteOffset": 124020,
      "componentType": 5126,
      "count": 9399,
      "max": [
        0.9999969601631165,
        0.9999969601631165,
        0.9999969601631165
      ],
      "min": [
        -0.9999969601631165,
        -0.9999969601631165,
        -0.9999969601631165
      ],
      "type": "VEC3"
    },
    {
      "bufferView": 1,
      "byteOffset": 3744,
      "componentType": 5126,
      "count": 9399,
      "max": [
        0.9962499737739563,
        0.9962499737739563
      ],
      "min": [
        0.0037499999161809683,
        0.07187499850988388
      ],
      "type": "VEC2"
    },
    {
      "bufferView": 0,
      "byteOffset": 2808,
      "componentType": 5125,
      "count": 14112,
      "type": "SCALAR"
    },
    {
      "bufferView": 2,
      "byteOffset": 236808,
      "componentType": 5126,
      "count": 1186,
      "max": [
        4.654221057891846,
        21.35661506652832,
        17.30948257446289
      ],
      "min": [
        -4.282286643981934,
        -3.1733558177948,
        -1.3767770528793335
      ],
      "type": "VEC3"
    },
    {
      "bufferView": 2,
      "byteOffset": 251040,
      "componentType": 5126,
      "count": 1186,
      "max": [
        0.9999969601631165,
        0.9999969601631165,
        0.9999969601631165
      ],
      "min": [
        -0.9999969601631165,
        -0.9999969601631165,
        -0.9999969601631165
      ],
      "type": "VEC3"
    },
    {
      "bufferView": 1,
      "byteOffset": 78936,
      "componentType": 5126,
      "count": 1186,
      "max": [
        0.9994375109672546,
        0.9962499737739563
      ],
      "min": [
        0.6912500262260437,
        0.0005624999757856131
      ],
      "type": "VEC2"
    },
    {
      "bufferView": 0,
      "byteOffset": 59256,
      "componentType": 5125,
      "count": 1782,
      "type": "SCALAR"
    },
    {
      "bufferView": 2,
      "byteOffset": 265272,
      "componentType": 5126,
      "count": 1398,
      "max": [
        8.026155471801758,
        21.356605529785156,
        17.475353240966797
      ],
      "min": [
        -7.991249084472656,
        -8.752856254577637,
        -6.528802394866943
      ],
      "type": "VEC3"
    },
    {
      "bufferView": 2,
      "byteOffset": 282048,
      "componentType": 5126,
      "count": 1398,
      "max": [
        0.9999969601631165,
        0.9999969601631165,
        0.9999969601631165
      ],
      "min": [
        -0.9999969601631165,
        -0.9999969601631165,
        -0.9999969601631165
      ],
      "type": "VEC3"
    },
    {
      "bufferView": 1,
      "byteOffset": 88424,
      "componentType": 5126,
      "count": 1398,
      "max": [
        0.9337499737739563,
        0.9962499737739563
      ],
      "min": [
        0.0037499999161809683,
        0.06875000149011612
      ],
      "type": "VEC2"
    },
    {
      "bufferView": 0,
      "byteOffset": 66384,
      "componentType": 5125,
      "count": 2100,
      "type": "SCALAR"
    },
    {
      "bufferView": 2,
      "byteOffset": 298824,
      "componentType": 5126,
      "count": 575,
      "max": [
        6.013329982757568,
        22.254838943481445,
        14.142901420593262
      ],
      "min": [
        -6.001263618469238,
        -4.567425727844238,
        -3.5788183212280273
      ],
      "type": "VEC3"
    },
    {
      "bufferView": 2,
      "byteOffset": 305724,
      "componentType": 5126,
      "count": 575,
      "max": [
        0.9999969601631165,
        0.9999969601631165,
        0.9999969601631165
      ],
      "min": [
        -0.9999969601631165,
        -0.9999969601631165,
        -0.9999969601631165
      ],
      "type": "VEC3"
    },
    {
      "bufferView": 1,
      "byteOffset": 99608,
      "componentType": 5126,
      "count": 575,
      "max": [
        0.934374988079071,
        0.984375
      ],
      "min": [
        0.06624999642372131,
        0.023125000298023224
      ],
      "type": "VEC2"
    },
    {
      "bufferView": 0,
      "byteOffset": 74784,
      "componentType": 5125,
      "count": 864,
      "type": "SCALAR"
    },
    {
      "bufferView": 2,
      "byteOffset": 312624,
      "componentType": 5126,
      "count": 360,
      "max": [
        4.762639045715332,
        21.1917781829834,
        13.8818941116333
      ],
      "min": [
        -12.509556770324707,
        -5.011320114135742,
        -2.267024517059326
      ],
      "type": "VEC3"
    },
    {
      "bufferView": 2,
      "byteOffset": 316944,
      "componentType": 5126,
      "count": 360,
      "max": [
        0.9999969601631165,
        0.9999969601631165,
        0.9999969601631165
      ],
      "min": [
        -0.9999969601631165,
        -0.9999969601631165,
        -0.9999969601631165
      ],
      "type": "VEC3"
    },
    {
      "bufferView": 1,
      "byteOffset": 104208,
      "componentType": 5126,
      "count": 360,
      "max": [
        0.9962499737739563,
        0.7462499737739563
      ],
      "min": [
        0.0037499999161809683,
        6.25000029685907e-05
      ],
      "type": "VEC2"
    },
    {
      "bufferView": 0,
      "byteOffset": 78240,
      "componentType": 5125,
      "count": 540,
      "type": "SCALAR"
    },
    {
      "bufferView": 2,
      "byteOffset": 321264,
      "componentType": 5126,
      "count": 456,
      "max": [
        9.791220664978027,
        13.027785301208496,
        4.112574577331543
      ],
      "min": [
        -9.774513244628906,
        -10.006814002990723,
        -8.031329154968262
      ],
      "type": "VEC3"
    },
    {
      "bufferView": 2,
      "byteOffset": 326736,
      "componentType": 5126,
      "count": 456,
      "max": [
        0.9999969601631165,
        0.9999969601631165,
        0.9999969601631165
      ],
      "min": [
        -0.9999969601631165,
        -0.9999969601631165,
        -0.9999969601631165
      ],
      "type": "VEC3"
    },
    {
      "bufferView": 1,
      "byteOffset": 107088,
      "componentType": 5126,
      "count": 456,
      "max": [
        0.9962499737739563,
        0.9962499737739563
      ],
      "min": [
        0.0037499999161809683,
        0.0037499999161809683
      ],
      "type": "VEC2"
    },
    {
      "bufferView": 0,
      "byteOffset": 80400,
      "componentType": 5125,
      "count": 684,
      "type": "SCALAR"
    }
  ],
  "asset": {
    "extras": {
      "author": "Wacky (https://sketchfab.com/wackyblocks)",
      "license": "CC-BY-4.0 (http://creativecommons.org/licenses/by/4.0/)",
      "source": "https://sketchfab.com/3d-models/opportunity-0eef63b33e774be6b2ddec9e2e86e2f8",
      "title": "Opportunity"
    },
    "generator": "Sketchfab-12.68.0",
    "version": "2.0"
  },
  "bufferViews": [
    {
      "buffer": 0,
      "byteLength": 83136,
      "name": "floatBufferViews",
      "target": 34963
    },
    {
      "buffer": 0,
      "byteLength": 110736,
      "byteOffset": 83136,
      "byteStride": 8,
      "name": "floatBufferViews",
      "target": 34962
    },
    {
      "buffer": 0,
      "byteLength": 332208,
      "byteOffset": 193872,
      "byteStride": 12,
      "name": "floatBufferViews",
      "target": 34962
    }
  ],
  "buffers": [
    {
      "byteLength": 526080,
      "uri": "scene.bin"
    }
  ],
  "extensionsUsed": [
    "KHR_materials_clearcoat"
  ],
  "images": [
    {
      "uri": "textures/material_baseColor.png"
    },
    {
      "uri": "textures/material_metallicRoughness.png"
    },
    {
      "uri": "textures/material_1_baseColor.png"
    },
    {
      "uri": "textures/material_1_metallicRoughness.png"
    },
    {
      "uri": "textures/material_2_baseColor.png"
    },
    {
      "uri": "textures/material_3_baseColor.png"
    },
    {
      "uri": "textures/material_4_baseColor.png"
    },
    {
      "uri": "textures/material_5_baseColor.png"
    },
    {
      "uri": "textures/material_6_baseColor.png"
    },
    {
      "uri": "textures/material_7_baseColor.png"
    },
    {
      "uri": "textures/material_8_baseColor.png"
    },
    {
      "uri": "textures/material_9_baseColor.png"
    }
  ],
  "materials": [
    {
      "alphaMode": "BLEND",
      "doubleSided": true,
      "extensions": {
        "KHR_materials_clearcoat": {
          "clearcoatFactor": 0.1480564024,
          "clearcoatRoughnessFactor": 0.04
        }
      },
      "name": "material",
      "pbrMetallicRoughness": {
        "baseColorFactor": [
          0.8919588415,
          0.8919588415,
          0.8919588415,
          1.0
        ],
        "baseColorTexture": {
          "index": 0
        },
        "metallicRoughnessTexture": {
          "index": 1
        }
      }
    },
    {
      "alphaMode": "BLEND",
      "doubleSided": true,
      "name": "material_1",
      "pbrMetallicRoughness": {
        "baseColorTexture": {
          "index": 2
        },
        "metallicRoughnessTexture": {
          "index": 3
        },
        "roughnessFactor": 0.0
      }
    },
    {
      "doubleSided": true,
      "extensions": {
        "KHR_materials_clearcoat": {
          "clearcoatFactor": 1.0,
          "clearcoatRoughnessFactor": 0.04
        }
      },
      "name": "material_2",
      "pbrMetallicRoughness": {
        "baseColorTexture": {
          "index": 4
        },
        "metallicFactor": 0.7822027439,
        "metallicRoughnessTexture": {
          "index": 1
        },
        "roughnessFactor": 0.4102515244
      }
    },
    {
      "doubleSided": true,
      "name": "material_3",
      "pbrMetallicRoughness": {
        "baseColorFactor": [
          0.6907393293,
          0.6907393293,
          0.6907393293,
          1.0
        ],
        "baseColorTexture": {
          "index": 5
        },
        "metallicFactor": 0.9285442073,
        "metallicRoughnessTexture": {
          "index": 1
        },
        "roughnessFactor": 0.6446265244
      }
    },
    {
      "doubleSided": true,
      "name": "material_4",
      "pbrMetallicRoughness": {
        "baseColorTexture": {
          "index": 6
        },
        "metallicFactor": 0.1663490854,
        "metallicRoughnessTexture": {
          "index": 3
        }
      }
    },
    {
      "doubleSided": true,
      "name": "material_5",
      "pbrMetallicRoughness": {
        "baseColorTexture": {
          "index": 7
        },
        "metallicRoughnessTexture": {
          "index": 3
        }
      }
    },
    {
      "doubleSided": true,
      "name": "material_6",
      "pbrMetallicRoughness": {
        "baseColorTexture": {
          "index": 8
        },
        "metallicRoughnessTexture": {
          "index": 3
        }
      }
    },
    {
      "doubleSided": true,
      "extensions": {
        "KHR_materials_clearcoat": {
          "clearcoatFactor": 0.0504954268,
          "clearcoatRoughnessFactor": 0.04
        }
      },
      "name": "material_7",
      "pbrMetallicRoughness": {
        "baseColorTexture": {
          "index": 9
        },
        "metallicRoughnessTexture": {
          "index": 3
        },
        "roughnessFactor": 0.5897484756
      }
    },
    {
      "alphaMode": "BLEND",
      "doubleSided": true,
      "name": "material_8",
      "pbrMetallicRoughness": {
        "baseColorTexture": {
          "index": 10
        },
        "metallicRoughnessTexture": {
          "index": 3
        }
      }
    },
    {
      "doubleSided": true,
      "name": "material_9",
      "pbrMetallicRoughness": {
        "baseColorTexture": {
          "index": 11
        },
        "metallicRoughnessTexture": {
          "index": 3
        }
      }
    },
    {
      "doubleSided": true,
      "name": "none",
      "pbrMetallicRoughness": {
        "baseColorFactor": [
          0.8,
          0.8,
          0.8,
          1.0
        ],
        "metallicFactor": 0.0
      }
    }
  ],
  "meshes": [
    {
      "name": "Object_0",
      "primitives": [
        {
          "attributes": {
            "NORMAL": 1,
            "POSITION": 0,
            "TEXCOORD_0": 2
          },
          "indices": 3,
          "material": 1,
          "mode": 4
        }
      ]
    },
    {
      "name": "Object_1",
      "primitives": [
        {
          "attributes": {
            "NORMAL": 5,
            "POSITION": 4,
            "TEXCOORD_0": 6
          },
          "indices": 7,
          "material": 2,
          "mode": 4
        }
      ]
    },
    {
      "name": "Object_2",
      "primitives": [
        {
          "attributes": {
            "NORMAL": 9,
            "POSITION": 8,
            "TEXCOORD_0": 10
          },
          "indices": 11,
          "material": 3,
          "mode": 4
        }
      ]
    },
    {
      "name": "Object_3",
      "primitives": [
        {
          "attributes": {
            "NORMAL": 13,
            "POSITION": 12,
            "TEXCOORD_0": 14
          },
          "indices": 15,
          "material": 4,
          "mode": 4
        }
      ]
    },
    {
      "name": "Object_4",
      "primitives": [
        {
          "attributes": {
            "NORMAL": 17,
            "POSITION": 16,
            "TEXCOORD_0": 18
          },
          "indices": 19,
          "material": 9,
          "mode": 4
        }
      ]
    },
    {
      "name": "Object_5",
      "primitives": [
        {
          "attributes": {
            "NORMAL": 21,
            "POSITION": 20,
            "TEXCOORD_0": 22
          },
          "indices": 23,
          "material": 10,
          "mode": 4
        }
      ]
    },
    {
      "name": "Object_6",
      "primitives": [
        {
          "attributes": {
            "NORMAL": 25,
            "POSITION": 24,
            "TEXCOORD_0": 26
          },
          "indices": 27,
          "material": 0,
          "mode": 4
        }
      ]
    },
    {
      "name": "Object_7",
      "primitives": [
        {
          "attributes": {
            "NORMAL": 29,
            "POSITION": 28,
            "TEXCOORD_0": 30
          },
          "indices": 31,
          "material": 0,
          "mode": 4
        }
      ]
    },
    {
      "name": "Object_8",
      "primitives": [
        {
          "attributes": {
            "NORMAL": 33,
            "POSITION": 32,
            "TEXCOORD_0": 34
          },
          "indices": 35,
          "material": 5,
          "mode": 4
        }
      ]
    },
    {
      "name": "Object_9",
      "primitives": [
        {
          "attributes": {
            "NORMAL": 37,
            "POSITION": 36,
            "TEXCOORD_0": 38
          },
          "indices": 39,
          "material": 6,
          "mode": 4
        }
      ]
    },
    {
      "name": "Object_10",
      "primitives": [
        {
          "attributes": {
            "NORMAL": 41,
            "POSITION": 40,
            "TEXCOORD_0": 42
          },
          "indices": 43,
          "material": 7,
          "mode": 4
        }
      ]
    },
    {
      "name": "Object_11",
      "primitives": [
        {
          "attributes": {
            "NORMAL": 45,
            "POSITION": 44,
            "TEXCOORD_0": 46
          },
          "indices": 47,
          "material": 8,
          "mode": 4
        }
      ]
    }
  ],
  "nodes": [
    {
      "children": [
        1
      ],
      "matrix": [
        1.0,
        0.0,
        0.0,
        0.0,
        0.0,
        2.220446049250313e-16,
        -1.0,
        0.0,
        0.0,
        1.0,
        2.220446049250313e-16,
        0.0,
        0.0,
        0.0,
        0.0,
        1.0
      ],
      "name": "Sketchfab_model"
    },
    {
      "children": [
        2,
        3,
        4,
        5,
        6,
        7,
        8,
        9,
        10,
        11,
        12,
        13
      ],
      "name": "oppy.obj.cleaner.materialmerger.gles"
    },
    {
      "mesh": 0,
      "name": "Object_2"
    },
    {
      "mesh": 1,
      "name": "Object_3"
    },
    {
      "mesh": 2,
      "name": "Object_4"
    },
    {
      "mesh": 3,
      "name": "Object_5"
    },
    {
      "mesh": 4,
      "name": "Object_6"
    },
    {
      "mesh": 5,
      "name": "Object_7"
    },
    {
      "mesh": 6,
      "name": "Object_8"
    },
    {
      "mesh": 7,
      "name": "Object_9"
    },
    {
      "mesh": 8,
      "name": "Object_10"
    },
    {
      "mesh": 9,
      "name": "Object_11"
    },
    {
      "mesh": 10,
      "name": "Object_12"
    },
    {
      "mesh": 11,
      "name": "Object_13"
    }
  ],
  "samplers": [
    {
      "magFilter": 9728,
      "minFilter": 9986,
      "wrapS": 10497,
      "wrapT": 10497
    }
  ],
  "scene": 0,
  "scenes": [
    {
      "name": "Sketchfab_Scene",
      "nodes": [
        0
      ]
    }
  ],
  "textures": [
    {
      "sampler": 0,
      "source": 0
    },
    {
      "sampler": 0,
      "source": 1
    },
    {
      "sampler": 0,
      "source": 2
    },
    {
      "sampler": 0,
      "source": 3
    },
    {
      "sampler": 0,
      "source": 4
    },
    {
      "sampler": 0,
      "source": 5
    },
    {
      "sampler": 0,
      "source": 6
    },
    {
      "sampler": 0,
      "source": 7
    },
    {
      "sampler": 0,
      "source": 8
    },
    {
      "sampler": 0,
      "source": 9
    },
    {
      "sampler": 0,
      "source": 10
    },
    {
      "sampler": 0,
      "source": 11
    }
  ]
}
